<svg width="12" height="13" viewBox="0 0 12 13" fill="none" xmlns="http://www.w3.org/2000/svg">
<path fill-rule="evenodd" clip-rule="evenodd" d="M6.0386 0.306074C6.15497 0.512542 6.13919 0.768102 5.99831 0.958688C5.48469 1.65356 5.23754 2.5097 5.30179 3.37139C5.36605 4.23309 5.73746 5.0431 6.34846 5.6541C6.95946 6.2651 7.76948 6.63651 8.63117 6.70077C9.49287 6.76503 10.349 6.51787 11.0439 6.00425L11.4013 6.48777L12 6.5431C11.8949 7.68032 11.4681 8.76408 10.7696 9.66759C10.071 10.5711 9.12957 11.257 8.05544 11.645C6.9813 12.0329 5.81888 12.107 4.70419 11.8584C3.5895 11.6099 2.56866 11.049 1.7611 10.2415C0.953538 9.43391 0.39267 8.41306 0.144121 7.29837C-0.104428 6.18368 -0.0303768 5.02126 0.357609 3.94713C0.745595 2.87299 1.43147 1.93156 2.33497 1.23301C3.23848 0.53445 4.32224 0.107655 5.45946 0.00256126C5.69545 -0.0192476 5.92224 0.0996063 6.0386 0.306074ZM10.536 7.62636C9.90279 7.85545 9.22357 7.95083 8.54174 7.89999C7.39282 7.81431 6.3128 7.3191 5.49813 6.50443C4.68346 5.68976 4.18825 4.60975 4.10257 3.46082C4.05173 2.77899 4.14711 2.09977 4.37621 1.46656C3.90865 1.63573 3.4678 1.87721 3.07053 2.18437C2.34773 2.74321 1.79903 3.49635 1.48864 4.35566C1.17825 5.21497 1.11901 6.14491 1.31785 7.03666C1.51669 7.92841 1.96538 8.74509 2.61143 9.39113C3.25748 10.0372 4.07415 10.4859 4.9659 10.6847C5.85765 10.8836 6.78759 10.8243 7.6469 10.5139C8.50621 10.2035 9.25935 9.65484 9.8182 8.93203C10.1254 8.53476 10.3668 8.09392 10.536 7.62636Z" fill="#6C698D"/>
</svg>
