<svg width="12" height="12" viewBox="0 0 12 12" fill="none" xmlns="http://www.w3.org/2000/svg">
<path fill-rule="evenodd" clip-rule="evenodd" d="M6 4C4.89543 4 4 4.89543 4 6C4 7.10457 4.89543 8 6 8C7.10457 8 8 7.10457 8 6C8 4.89543 7.10457 4 6 4ZM3 6C3 4.34315 4.34315 3 6 3C7.65685 3 9 4.34315 9 6C9 7.65685 7.65685 9 6 9C4.34315 9 3 7.65685 3 6Z" fill="#6C698D"/>
<path fill-rule="evenodd" clip-rule="evenodd" d="M6 0C6.27614 0 6.5 0.223858 6.5 0.5V1.5C6.5 1.77614 6.27614 2 6 2C5.72386 2 5.5 1.77614 5.5 1.5V0.5C5.5 0.223858 5.72386 0 6 0Z" fill="#6C698D"/>
<path fill-rule="evenodd" clip-rule="evenodd" d="M6 10C6.27614 10 6.5 10.2239 6.5 10.5V11.5C6.5 11.7761 6.27614 12 6 12C5.72386 12 5.5 11.7761 5.5 11.5V10.5C5.5 10.2239 5.72386 10 6 10Z" fill="#6C698D"/>
<path fill-rule="evenodd" clip-rule="evenodd" d="M1.75582 1.75655C1.95108 1.56129 2.26767 1.56129 2.46293 1.75655L3.17293 2.46655C3.36819 2.66182 3.36819 2.9784 3.17293 3.17366C2.97767 3.36892 2.66108 3.36892 2.46582 3.17366L1.75582 2.46366C1.56056 2.2684 1.56056 1.95182 1.75582 1.75655Z" fill="#6C698D"/>
<path fill-rule="evenodd" clip-rule="evenodd" d="M8.82613 8.82638C9.0214 8.63112 9.33798 8.63112 9.53324 8.82638L10.2432 9.53638C10.4385 9.73164 10.4385 10.0482 10.2432 10.2435C10.048 10.4387 9.7314 10.4387 9.53613 10.2435L8.82613 9.53349C8.63087 9.33822 8.63087 9.02164 8.82613 8.82638Z" fill="#6C698D"/>
<path fill-rule="evenodd" clip-rule="evenodd" d="M0 6C0 5.72386 0.223858 5.5 0.5 5.5H1.5C1.77614 5.5 2 5.72386 2 6C2 6.27614 1.77614 6.5 1.5 6.5H0.5C0.223858 6.5 0 6.27614 0 6Z" fill="#6C698D"/>
<path fill-rule="evenodd" clip-rule="evenodd" d="M10 6C10 5.72386 10.2239 5.5 10.5 5.5H11.5C11.7761 5.5 12 5.72386 12 6C12 6.27614 11.7761 6.5 11.5 6.5H10.5C10.2239 6.5 10 6.27614 10 6Z" fill="#6C698D"/>
<path fill-rule="evenodd" clip-rule="evenodd" d="M3.17293 8.82638C3.36819 9.02164 3.36819 9.33822 3.17293 9.53349L2.46293 10.2435C2.26767 10.4387 1.95108 10.4387 1.75582 10.2435C1.56056 10.0482 1.56056 9.73164 1.75582 9.53638L2.46582 8.82638C2.66108 8.63112 2.97767 8.63112 3.17293 8.82638Z" fill="#6C698D"/>
<path fill-rule="evenodd" clip-rule="evenodd" d="M10.2432 1.75655C10.4385 1.95182 10.4385 2.2684 10.2432 2.46366L9.53324 3.17366C9.33798 3.36892 9.0214 3.36892 8.82613 3.17366C8.63087 2.9784 8.63087 2.66182 8.82613 2.46655L9.53613 1.75655C9.7314 1.56129 10.048 1.56129 10.2432 1.75655Z" fill="#6C698D"/>
</svg>
